<svg width="48" height="48" viewBox="0 0 48 48" fill="none" xmlns="http://www.w3.org/2000/svg">
<path d="M1.71429 8.81633H46.2857C47.2325 8.81633 48 7.93922 48 6.85714V1.95918C48 0.877102 47.2325 0 46.2857 0H1.71429C0.767464 0 0 0.877102 0 1.95918V6.85714C0 7.93922 0.767464 8.81633 1.71429 8.81633ZM1.71429 28.4082H46.2857C47.2325 28.4082 48 27.5311 48 26.449V21.551C48 20.4689 47.2325 19.5918 46.2857 19.5918H1.71429C0.767464 19.5918 0 20.4689 0 21.551V26.449C0 27.5311 0.767464 28.4082 1.71429 28.4082ZM1.71429 48H46.2857C47.2325 48 48 47.1229 48 46.0408V41.1429C48 40.0608 47.2325 39.1837 46.2857 39.1837H1.71429C0.767464 39.1837 0 40.0608 0 41.1429V46.0408C0 47.1229 0.767464 48 1.71429 48Z" fill="black"/>
</svg>
